<?xml version="1.0" encoding="iso-8859-1"?>
<!-- Generator: Adobe Illustrator 19.0.0, SVG Export Plug-In . SVG Version: 6.00 Build 0)  -->
<svg version="1.1" id="Layer_1" xmlns="http://www.w3.org/2000/svg" xmlns:xlink="http://www.w3.org/1999/xlink" x="0px" y="0px"
	 viewBox="0 0 512 512" style="enable-background:new 0 0 512 512;" xml:space="preserve">
<path style="fill:#93D6F4;" d="M185.667,274.167h-30V108.833c0-58.265,47.402-105.666,105.667-105.666S367,50.568,367,108.833v97
	h84.333V167.5h30v68.333H337v-127c0-41.723-33.944-75.666-75.667-75.666s-75.667,33.943-75.667,75.666L185.667,274.167
	L185.667,274.167z"/>
<path style="fill:#543F29;" d="M246.364,190.259v-48.426H91.101v48.426C35.446,219.126,0,276.904,0,340.102
	c0,93.039,75.693,168.731,168.732,168.731s168.731-75.692,168.731-168.731C337.463,276.903,302.018,219.126,246.364,190.259z"/>
<polygon style="fill:#FF4F19;" points="512,76.773 490.788,55.56 466.727,79.62 442.667,55.56 421.454,76.773 445.513,100.833 
	421.454,124.894 442.667,146.106 466.727,122.046 490.788,146.106 512,124.894 487.94,100.833 "/>
<polygon style="fill:#D43504;" points="512,76.773 490.788,55.56 466.727,79.62 466.727,122.046 490.788,146.106 512,124.894 
	487.94,100.833 "/>
<path style="fill:#382A1B;" d="M246.364,190.259v-48.426h-74.697v366.963c91.689-1.573,165.796-76.637,165.796-168.694
	C337.463,276.903,302.018,219.126,246.364,190.259z"/>
<path style="fill:#AC825A;" d="M171.667,451.511c-61.852,0-112.172-50.32-112.172-112.172h30c0,45.31,36.862,82.172,82.172,82.172
	V451.511z"/>
<g>
</g>
<g>
</g>
<g>
</g>
<g>
</g>
<g>
</g>
<g>
</g>
<g>
</g>
<g>
</g>
<g>
</g>
<g>
</g>
<g>
</g>
<g>
</g>
<g>
</g>
<g>
</g>
<g>
</g>
</svg>
